<?xml version="1.0" standalone="no"?>
<!DOCTYPE svg PUBLIC "-//W3C//DTD SVG 20010904//EN"
 "http://www.w3.org/TR/2001/REC-SVG-20010904/DTD/svg10.dtd">
<svg version="1.0" xmlns="http://www.w3.org/2000/svg"
 width="700.000000pt" height="700.000000pt" viewBox="0 0 700.000000 700.000000"
 preserveAspectRatio="xMidYMid meet">
<metadata>
Created by potrace 1.11, written by Peter Selinger 2001-2013
</metadata>
<g transform="translate(0.000000,700.000000) scale(0.100000,-0.100000)"
fill="#000000" stroke="none">
<path d="M3449 5622 c-93 -29 -184 -107 -263 -226 -31 -46 -56 -87 -56 -89 0
-3 -18 -43 -39 -89 -42 -88 -92 -221 -113 -301 -7 -26 -15 -46 -18 -45 -3 2
-66 33 -140 69 -239 118 -426 172 -569 164 -92 -4 -108 -8 -157 -34 -54 -28
-78 -50 -106 -96 -36 -59 -51 -134 -45 -223 12 -161 55 -299 163 -518 41 -83
74 -154 74 -157 0 -4 -7 -7 -15 -7 -32 0 -266 -84 -363 -130 -183 -87 -309
-188 -363 -291 -34 -64 -33 -175 0 -244 66 -135 269 -271 551 -369 89 -31 116
-45 112 -56 -3 -8 -8 -17 -11 -20 -16 -13 -102 -181 -141 -275 -34 -83 -66
-185 -77 -245 -7 -42 -7 -155 0 -190 23 -107 93 -180 204 -213 50 -15 209 -16
278 -2 153 31 357 105 531 193 l61 31 13 -57 c36 -161 148 -430 230 -553 57
-85 144 -169 205 -198 76 -36 163 -34 239 4 71 36 170 140 229 240 56 96 125
257 167 392 19 62 38 113 42 113 3 0 32 -15 65 -33 136 -76 370 -168 464 -182
24 -4 47 -9 51 -11 19 -12 181 -4 234 12 79 23 152 95 177 176 49 159 -2 396
-147 683 -34 66 -62 123 -64 126 -2 6 24 16 63 24 46 10 219 77 303 116 555
260 522 619 -78 864 -58 24 -137 53 -177 66 l-71 22 25 40 c85 135 193 398
209 512 28 190 -25 319 -154 381 -49 24 -72 28 -162 30 -92 3 -126 0 -215 -20
-100 -21 -297 -94 -425 -157 -45 -21 -84 -39 -88 -39 -5 0 -14 24 -21 53 -29
116 -86 269 -146 392 -100 204 -212 326 -330 360 -49 15 -102 17 -136 7z"/>
<path d="M1305 1960 c3 -5 8 -10 11 -10 2 0 4 5 4 10 0 6 -5 10 -11 10 -5 0
-7 -4 -4 -10z"/>
</g>
</svg>
